<svg width="14" height="14" viewBox="0 0 14 14" fill="none" xmlns="http://www.w3.org/2000/svg">
<path d="M7.00037 -0.00012207C5.6159 -0.00012207 4.26252 0.410421 3.11138 1.17959C1.96023 1.94876 1.06303 3.04201 0.533212 4.32109C0.00339918 5.60018 -0.135224 7.00764 0.134872 8.36551C0.404969 9.72337 1.07165 10.9707 2.05062 11.9496C3.02959 12.9286 4.27687 13.5953 5.63474 13.8654C6.9926 14.1355 8.40007 13.9968 9.67915 13.467C10.9582 12.9372 12.0515 12.04 12.8207 10.8889C13.5898 9.73772 14.0004 8.38435 14.0004 6.99988C13.9982 5.14401 13.2601 3.36477 11.9478 2.05247C10.6355 0.74018 8.85623 0.0020011 7.00037 -0.00012207Z" fill="#1A78FA"/>
<path d="M6.96948 2.54791V7.01091V6.45304" stroke="#0A0A0B" stroke-width="1.91271" stroke-linecap="round"/>
<path d="M6.96954 7.01086L4.73804 8.68449" stroke="#0A0A0B" stroke-width="1.91271" stroke-linecap="round"/>
</svg>
